<?xml version="1.0" encoding="utf-8"?>
<!-- Generator: Adobe Illustrator 18.1.0, SVG Export Plug-In . SVG Version: 6.00 Build 0)  -->
<svg version="1.1" id="Layer_1" xmlns="http://www.w3.org/2000/svg" xmlns:xlink="http://www.w3.org/1999/xlink" x="0px" y="0px"
	 viewBox="0 0 438.2 218.9" enable-background="new 0 0 438.2 218.9" xml:space="preserve">
<g>
	<path fill-rule="evenodd" clip-rule="evenodd" fill="#FFFFFF" d="M427.5,208.5c-0.8-0.6-1.5-1.5-1.3-2.5c-0.2-0.2-0.5-0.1-0.5-0.2
		c0.5-1.1,0.4-2.7-0.2-3.5c0-1.5-0.1-3.1-0.2-4.9c0-0.2-0.3-0.4-0.3-0.6c-0.1-0.4,0.2-0.9,0.1-1.4c-0.1-0.4-0.3-0.8-0.4-1.2
		c-0.1-0.7,0.2-1.4,0-2.2c-0.2-1-0.6-1.7-0.5-2.5c0.1-1.4-0.3-2.1,0.3-3.4c-0.1-0.1-0.4-0.1-0.4-0.4c0.2-1.4-0.3-10.5,0.5-11.2
		c-0.7-0.4-0.1-1.7-0.7-2.4c1-0.9,0.1-1.7,0.4-3c-1.1,0.1-1.1-0.8-1-2c0.2-0.3,0.7,0.3,0.7-0.2c0.1-0.3,0.1-1-0.1-1.3
		c0,0.5,0,1.2-0.5,1.3c-0.6-2.7,0.6-5.9-0.3-7.7c0.2-1.5,0.2-3.5-0.2-5.1c0,0.3-0.2,0.3-0.4,0.2c0.2-1.1-0.1-1.5,0.4-1.9
		c-0.2-0.1-0.3-0.3-0.4-0.6c1.1-1.7-0.4-3.3,0.3-5c-0.8-1.3,0.2-3.8-0.2-6c-0.1-0.2-0.5-0.1-0.7-0.3c-0.1-0.8,0.2-1.1,0.6-1.6
		c-0.1-1.6,0.2-2.9-0.5-3.9c0.1-0.4,0.3-0.8,0.3-1.3c-0.3-0.1-0.3-0.4-0.4-0.7c0.5-2.5-0.1-5-0.3-7.3c-0.1-1.5,0.2-3.1-0.7-4.2
		c0.6-2.1-0.3-4.7-0.3-6.4c0-1.5-0.3-3.1-0.7-4c0.4-0.2,0-0.8,0.3-1.2c-0.1-0.3-0.4-0.4-0.4-0.7c0.2-2,0-3.5-0.7-4.9
		c0-0.3,0.4-0.2,0.4-0.6c-0.1-0.5-0.2-1.3,0-1.7c-0.6-0.4-1.1-0.8-0.8-1.6c0.2-0.2,0.5,0.2,0.5-0.2c0.2-1.9-0.5-3.8-0.1-6.2
		c0.1-0.2-0.3-0.1-0.3-0.3c0.7-2.7-1.1-5.3-0.7-7.9c0.2-1.2-0.2-1.3-0.5-2.1c-0.4-0.9-0.5-1.9-0.8-2.7c-0.3-0.2-0.5,0.4-0.6,0.1
		c-0.3-0.5-0.2-1.3-1-1.5c-0.3,0.1-0.3,0.6-0.5,0.8c-0.3-0.8,0-1.6-0.5-2.2c-1,0.6-4.8,0.1-5.4-0.6c0.3-0.4,0.1-1-0.5-1
		c-0.1,0.2,0.1,0.7-0.3,0.6c-0.7,0-0.8-0.5-0.7-1.1c-1.2,0-1.6-0.7-2.6-0.9c-0.7-1-2.3-1.3-3.5-1.9c-0.1-0.3-0.2,0.3-0.6,0.1
		c-0.2-0.9-1.6-1.6-2.5-1.3c-0.3-0.1-0.1-0.6-0.4-0.6c0,0.2-0.1,0.3-0.4,0.3c-0.4-0.7-1.2-1.5-2.2-1.3c-0.9,1-0.9,2.3,0.1,3
		c-0.3,0.9-0.2,2.1,0.3,2.6c-0.3,1,0.1,1.7,0.2,2.3c0.1,0.3-0.1,0.7-0.1,1c0.1,0.2,0.4,0.4,0.4,0.6c0.3,1.4-0.2,3.2,0,4.8
		c0.1,1,0.2,2.1,0.3,3.1c0.3,2.1,0.4,4.8,0.7,6.6c0.4,2.4,0.1,5.1,0.4,7.4c0.1,0.7,0.7,1.3,0.2,2.1c0.3,0,0.5-0.2,0.6,0.1
		c0.3,1.1,0.2,2,0.2,2.9c-0.4,0-0.5,0.1-0.6,0.4c0.1,3.5,0.8,6.5,0.7,9.9c0.4,0.4,0.5,1.1,0.4,1.9c1,1.6-0.5,4.1,1.1,5.5
		c0.5,0.9-0.4,2.2,0.2,3.1c0,0.6,0,0.8,0,1.4c0.4,0.4,1,0.6,0.9,1.3c-0.1,0.3-0.5,0.4-0.6,0.7c0.1,1.1,1,1.8,0.8,2.8
		c-0.1,0.6,0.1,0.7,0.1,1.2c0,0.3-0.2,0.8-0.2,1.1c0.1,0.5,0.6,1,0.6,1.8c0,0.6-0.3,1.3-0.1,1.8c0.1,0.3,0.7,0.5,0.8,0.9
		c0.3,0.6,0,1.1,0,1.7c0,0.4,0.4,0.8,0.5,1.3c0.3,1,0.2,2.3,0.4,3.4c0.1,0.5,0.4,1,0.5,1.5c0.5,2.8,0.5,5.8,1,8.6
		c0.1,0.3,0.3,0.5,0.4,0.9c0,0.3,0,0.6-0.1,0.9c0.1,0.3,0.5,0.3,0.5,0.7c-0.8,1.9,0.3,3.9,0.3,5.9c0,2-0.1,4.1,0.2,6.3
		c0.1,0.7,0.2,1.8,0.3,2.7c0.1,1.2,0.5,10.5,0.6,11.6c0.1,1.4,0.3,2.6,0.5,3.5c0.4,1.4,0.7,3.9,0.7,4.9c-0.3,0-0.4-0.2-0.8-0.1
		c-0.2,0.7-0.9,0.8-1.3,1.2c-1.7-0.6-3.4,0.6-5.2-0.1c-0.2,0.4-0.4,0.1-0.5,0.2c0,0.2,0.3,0.2,0.1,0.4c-0.5,0.2-1.9-0.3-2.3,0.4
		c1.8,2.7,6.2,3.2,8,5.9c0.5-0.1,0.4,0.3,0.9,0.2c0.6,1.3,2.2,1.7,2.4,3.3c0.4,0.6,1.4,0.7,1.9,1.2c-0.8,0.6,0.1,1.5,0,2
		c1.5-0.2,0.8,1.1,1.9,1.2c0.4-0.3,0.1-1.3,0.9-1.3c0.2,0.3,0.4,0.3,0.9,0.2c0.4,0.6,0.9,1.3,1.9,1.6c0.3,0.8,3.4,1.7,4.6,1.8
		c0.1-0.6,0.5-1,1.1-1.1c0.4,0.1,0.6,0.5,1.1,0.5c0.4-0.4,0.6-1.4,1.3-1.5c0.8-0.1,1.5,1,2.7,0.7C428,210.3,427.3,209.7,427.5,208.5
		z M404.3,146c-0.2,0-0.3,0-0.5,0c0-0.3-0.1-0.4-0.2-0.8c0.1-0.1,0.3-0.1,0.4-0.2c0.3,0.1,0.3,0.5,0.4,0.8
		C404.3,145.8,404.3,145.9,404.3,146z"/>
	<path fill-rule="evenodd" clip-rule="evenodd" fill="#FFFFFF" d="M378.7,91.6c-0.1-0.4-0.6-0.8-0.7-1.3c-0.4-1.3,0.2-3-0.7-4.3
		c-0.7,0.3,0,1.3-0.7,1.6c-1-0.8-1.4-2-1.3-3.4c-1.3-2-3.5-3.1-5.7-4.4c0-0.7-0.6-0.9-0.8-1.5c-2-0.8-3.8-1.8-5.2-3
		c-2-0.2-5.4-1.7-7.4-1.9c-0.2,1,0.5,1.3,0.8,2.1c-0.1,0.2-0.5,0.1-0.4,0.5c0,1.1,0.3,2.2,0.8,2.8c1,1.4,1.3,2.8,1.6,4.4
		c0.8,3.9,0.5,7.2,0.8,11.6c0.3,4.1,0.6,8.9,0.4,13.3c0,0.8,0,1.5,0,2.2c-0.2,10.4,0.3,21.2,2.4,29.4c1.3,0.6,0.5,3.2,1.3,3.9
		c0.2,0.2-0.4-0.4,0.2-0.4c0.6,1.4,0.7,3.5,0.9,5c0.6,3.7,0,8.1,1.4,10.6c0,0.4-0.5,0.3-0.5,0.7c0.8,0.7,2.6,0.1,3.3-0.6
		c0.1,0.4,3.2,0.7,3.6,0.9c0.8-0.4,0.8-0.1,1.7,0c-0.1-0.9-0.6-1.5-0.7-2.4c0.5-0.2,0.6-0.9,0.7-1.6c-0.5-0.4-0.2-1-0.2-1.6
		c0-0.4-0.4-0.7-0.4-1c0-0.3,0.3-0.6,0.3-0.9c0-0.9-0.8-1.6-0.2-2.4c-0.2-0.1-0.4-0.1-0.3-0.4c0.2-1.9,0.3-3.6,0.6-5.5
		c0.1-0.8-0.2-1.3-0.2-2c0-0.8,0.3-1.7,0.3-2.7c-0.1-2-0.7-4.7,0-6.3c-1.3-1-0.3-3.2,0-5c-0.4-1.2,0-2.4-0.2-3.9
		c0.6-0.1,0.7,0,1.1-0.1c1.1-0.8,0.6-1.9,0.6-2.8c0.1-1,0.9-2,0.9-3c-0.7-0.2-0.6-1-0.5-1.8c0.4-0.4,0.8,0,0.9-0.3
		c0.1-0.3-0.5,0.1-0.4-0.2c-0.1-1.9,0.1-3,0.4-5.2c1.3-1,1.3-3,1.3-4.8c0.1-0.3,0.3-0.5,0.4-0.9c-0.4-1.1,0.5-3.5-0.6-4.7
		c1.3-1.4-0.2-4.2,0.9-6.1C378.7,93.4,378.9,92.5,378.7,91.6z M374.7,122.5c-0.7,0.1-1,0.6-1.2,1.1c-0.5-0.7,0.5-2.4,1.4-1.8
		C374.9,122.1,374.7,122.2,374.7,122.5z"/>
	<path fill-rule="evenodd" clip-rule="evenodd" fill="#FFFFFF" d="M347.2,194.2c-0.4-0.5-0.7-1.1-0.5-1.9c-1.5-1.4-0.7-4.4-1.7-6.4
		c-0.2-0.2-0.6,0-0.5-0.4c0-0.4,0.3-8.4,0.3-8.7c-1.1-1.5-0.5-3.6-0.7-5.8c-0.3-0.1-0.5-0.1-0.9,0c-0.2-0.6-0.2-0.6,0-1.4
		c-0.2,0-0.3,0.1-0.3,0c0.2-1.1,0.3-1.6,0.4-2.7c-0.5-0.7,0.3-2,0-2.9c-1.2-1.3-1.3-3-1-5.4c-0.5-0.1-0.2-0.8-0.8-0.8
		c0,0.6,0,1.8-0.8,2.1c-0.1,0.3,0.4,1.1-0.2,1.2c-0.4-0.9-0.1-2.6,0.7-3.1c-0.1-0.2-0.5-0.2-0.4-0.6c0.7-0.8,0.9-1.7,0.8-2.8
		c-1.4-0.3-0.8-2.3-1.1-3.4c0.2-0.1,0.2-0.4,0.4-0.6c-0.8-0.8,0.2-2.5-0.4-2.9c-0.2,0.4-0.5,0.6-0.8,0.8c-1.3-0.6,0-1.7-0.1-2.7
		c0.2-0.2,0.7-0.3,0.6-0.8c-0.4-0.4-0.2,0.5-0.6,0.5c0.1-0.5-0.1-0.7-0.2-1c-0.5,0-0.8,0.1-1.2,0c-0.1-0.4-0.3-0.6-0.1-1.2
		c0.4-0.4,0.7-0.3,1-0.3c0-0.2,0-0.3,0-0.5c-0.1-0.2-0.8,0.2-0.8-0.3c0.7-0.2,1.3-2.2,0.7-2.6c0.1,0.4,0,1.4-0.5,1.5
		c-0.2-0.1-0.2-0.3-0.4-0.4c0.5-3.2,0.5-6,0.5-9c-0.1-0.2-0.7,0-0.9-0.2c0.1-0.7,0.9-1.5,0.8-2.3c-0.4,0.1-0.9,0.1-1.5,0.2
		c0.3-0.3-0.1-0.7,0.2-1.2c0.4,0.2,1-0.2,1.3-0.5c-0.2-0.8,0.5-1.3,0.3-1.7c-0.7,0-1-0.2-1.9,0.1c-0.2-0.4-0.2-1-0.1-1.7
		c0.3-0.1,0.5-0.3,0.9-0.3c0.1-0.8,0.8-1.5,1-1.9c-1.4-0.7,0.4-2.1-0.3-2.8c0.1,0.3-0.2,0.3-0.4,0.4c0.1-1-0.2-2.3,0.4-3
		c-0.1,0-0.5,0-0.5-0.4c-0.1-0.4,0.5-0.2,0.5-0.6c-0.1-0.3-0.1-0.6-0.5-0.7c0-1.2,1.1-3.3,0.4-4.1c0.2-0.4,0.4-0.2,0.3-0.7
		c-0.1-0.1-0.4-0.1-0.4-0.4c0-0.9,0.6-2.7-0.1-3.2c0.2-0.9,0.9-2.6,0.1-3.2c0.5-0.4,0.6-1.1,0.5-1.9c1.2-1,1.9-2.4,2.2-4.2
		c1.1,0.1,0.9-0.9,1.8-1c0.2-1.9,1.4-4.1,1.2-5.9c-0.2-1.8-1.8-3.2-2.1-4.8c-0.5-0.1-0.6-0.5-1-0.7c-0.1-0.2-0.3-0.2-0.2-0.6
		c-1-1-7.3-2.3-9-3.2c-0.7-0.4-1.6-0.6-2.4-1.1c-1.2-0.7-2.6-2.8-3.9-2.3c0.3,1.1,0.6,2.8,0.1,3.7c-0.7,0.1-1.6-0.4-2.7-0.2
		c-0.1-0.1-0.2-0.3-0.3-0.4c-0.6,0.3-1.2-0.4-1.9,0c-1-0.7-2.5-0.4-3.8-0.5c-5.6-0.5-11.4-0.3-17.2-0.5c-1.6-0.1-3.2-0.5-4.8-0.4
		c-1.6,0.1-3-0.5-4.6-0.3c-0.7,0.1-1.5,0.1-2.4,0.1c-1.7,0-3.2,0.4-4.4,0.5c-1.4,0.1-2.8-0.7-4.2,0c-0.2,0.2-0.4,0.3-0.5,0.5
		c-0.6,0.2-4.3,0.4-5,0.2c-0.4,0.3-0.6,0.8-0.8,1.4c0.3,0.2,0.6,0.3,0.6,0.6c0,0.2,0,0.5-0.2,0.6c0.6,1.6,1.4,3.2,2.3,4.8
		c0.5,1,1.2,2.2,1.2,3.2c0.2,3-0.3,6.2-0.2,9.2c0.2,7.3-0.1,14.7,0.3,22c0.2,3.6,0.3,8.2,0.3,11.5c0.1,3.5,0.3,6.9,0.5,10.2
		c0.1,1.1,0,2.2,0.3,3.2c0.4,1.2,0.4,2.9,0.6,4.3c0.2,1.8,0,3.4-0.1,4.9c-0.1,1.1,0.8,1.6,0.9,2.5c0.3,1.4,0.1,3.1,0.5,4.5
		c0.3,1.1,0.4,2.6,0.5,3.9c0.3,0.3,0.5,0.8,0.5,1.3c-0.1,1.6-0.3,3.8,0.3,5c0.1,4.6,0.1,17.1,0.2,21.2c0.1,1.4,0.7,2.9,1.6,3.9
		c0.3-0.5,4-0.6,4.4-1c0.4,0.1,0.1,0.6,0.6,0.6c0.3,0.1,0.4-0.1,0.7-0.1c0.2-0.3,0.2-0.8,0.3-1c1.1,0,1.5,0.7,2.2,1.1
		c0.5,0,0.7-0.4,1.3-0.5c0.2,0,0.4,0.6,0.4,0.1c0.3-0.3,0-1,0.6-1c0.8,0.2,1.1,0.8,1.8,1.1c0.3-0.1,0.3-0.3,0.5-0.5
		c-0.8-0.1-0.9-1.3-0.3-2c-0.4,0-0.6-0.1-0.8-0.3c0-0.8,1-1.3,0.6-2.5c-0.3-0.1-0.5,0.2-0.7,0c-0.3,0.7-0.2,1.3-0.5,1.9
		c-0.3,0-0.8,0.1-0.8-0.2c0.3-1.4-0.4-3.5,0.2-5c0.6-0.3,1.2-0.8,1.2-1.3c-0.2,0-0.4,0-0.4-0.1c0-0.5,0.6-1.2,0-1.4
		c0.2,0,0.4,0,0.4-0.2c-0.7-0.6,0.4-9.6-0.3-9.9c-0.4,1.3,0.6,11.4-1,12.2c-0.1-1.5-0.1-11.2,0.4-12.2c-1.1-0.2-0.5-1.6-1.1-2.3
		c0.2,1.4-1.2,10-1.2,11.2c-0.6-1-0.5-10.7-0.1-11.8c-0.4,0-0.7-0.1-0.6-0.4c0.1-0.3,0.2-0.6,0.4-0.8c0,0.3,0.2,0.2,0.2,0.6
		c0.4,0.1,0.1-0.5,0.6-0.3c0.1,0.3,0.3,0.5,0.9,0.4c-0.1-0.7,0.3-1.3,0.3-1.6c-0.1,0.1-0.5,0.1-0.4-0.1c0-0.3,0-0.7,0.2-0.9
		c-0.5,0.1-0.3-0.3-0.8-0.3c-0.5,0.4,0,1.8-0.9,1.8c-0.2-0.1,0.1-0.6-0.2-0.7c-0.2,0.2-0.2,0.5-0.3,0.6c-0.3-0.5-0.3-0.3-0.9-0.5
		c-0.3,1,0.3,1.8-0.2,2.4c-0.3,0.1-0.4-0.5-0.5,0c-0.1,0.9-0.7,1.4-1.3,1.9c-1-1.6,0.7-3.2,0.4-4.8c0-0.3-0.3-0.5-0.3-0.8
		c0-1,0.4-2.1-0.2-2.9c-0.3,0.5-0.1,1.4-0.7,1.7c-0.4-1-0.3-2.4-0.4-3.8c0.6-0.1,1-0.7,0.9-1.2c0.1-0.3-0.4,0.2-0.4-0.1
		c0-0.7,0.7-1.9-0.1-2.4c-0.4-0.3-0.3,0.4-0.7,0.4c-0.2-0.3-0.4-0.6-0.5-1c0.6,0,0.7-0.2,1.2-0.5c-0.3,0,0.1-0.6-0.2-0.6
		c-0.4,0.3-1-0.1-1.1-0.4c0.7-1-0.2-2.3,1-2.7c1.6,1.7,0.6,4.4,1.1,7c0.1,0.1,0.3,0.2,0.4,0.3c0.2,2.6,0.1,4.6,0.7,6.9
		c0.6-0.1,0.5,0.3,0.9,0.3c0.4-0.3,1-0.4,1-1.1c-0.3,0.1-0.8,0.1-1.2,0.1c0-0.4-0.1-0.8,0-1.4c0.1-0.3,0.7-0.2,0.6-0.6
		c-1.9-0.4,0.5-3.1-0.3-4.4c0.1-0.4,0.5-0.4,0.3-0.8c-1.1-0.8-0.8-2.5-0.5-3.6c0.4,0,0.5,0.1,0.8-0.1c-1.4,0-0.4-1.6-0.6-2
		c0,0.3-0.2,0.3-0.5,0.3c0-0.3,0.1-0.7-0.2-0.7c-0.3,0.3,0,0.6-0.3,0.8c-0.2-1.6-1-3.3-0.2-4.9c-1.2,0.4-1-1.4-0.1-1.6
		c0.2,0.5,0.7,0.8,1.3,0.8c0.1,1.4,0.7,2.4,0.7,3.9c0.2,0,0.4,0,0.4,0.1c-0.2,0.9-0.4,1.8,0.2,2.4c0.1-0.7,0.6-1.1,0.1-1.8
		c0.3-0.3,0.9-1.1,0.2-1.4c-0.2,0.2-0.1,0.4-0.3,0.5c-0.2-0.1-0.4-0.2-0.4-0.5c1.1-1.3,0.2-2.6,0.5-3.5c-0.4,0-0.8,0.2-1,0
		c0-0.4-0.1-1.5,0.7-1.5c0.1-1.3-0.8-4.3,0.2-5.5c-0.7-0.9,1-3.1,0-4.2c0.7-0.3,0.7-1.2,1.5-1.5c0.6,0.3,1.3,1.5,2.6,1.2
		c0.4,0.4,1.2,0.5,1.4,1.1c0.5-0.1,0.7,0.1,1.1,0.1c0.2-0.1,0.2-0.4,0.6-0.3c1.5,1.8,6.6,1.4,9,0.7c0.7,0.3,1.4-0.1,1.8-0.4
		c-0.1,0.3,0.2,0.2,0.4,0.2c0.3,0,0.3-0.3,0.6-0.3c0.2,0.2,0.5-0.1,0.9,0c1-0.4,2.1-1.1,3.1-1.2c2.2-1.2,4.4-2.4,6.2-3.9
		c0-0.2,0-0.5,0-0.7c1.5-0.2,2.4-1.4,3.9-0.9c-0.5,1.7,1,2.9,0.5,4.8c0.6,0.4,0.7,1.3,0,1.8c0.2,0.4,0.7,0.6,0.6,1.4
		c-0.1,0.3-0.3,0.4-0.6,0.5c0.4,2.9,0.6,6,0.6,9.1c0.2,0.2,0.4,0.4,0.6,0.5c0.5,0.6-0.1,0.9-0.2,1.4c-0.2,0.7,0.3,2.3,0.3,3.7
		c0.1,1.9,0.1,3,0.5,4.4c0.4-0.1,0.4,0.2,0.5,0.4c-0.6,1-0.6,3.3,0,4.6c-0.7,2,0.4,3.4,0.8,4.8c-0.5,0.5-0.7,1.1-0.1,1.7
		c-0.4,1,0.2,10.8,0.5,11.7c-0.4,1.4,0.7,1.9,0.4,3.4c-0.6,1-2.3,0.4-3.2,1c-2.9-0.9-7-1.5-10-0.4c-1.2-0.4-3.7-0.4-5.1-0.2
		c0.6,0.6,1.5,0.6,2.2,1c1.1,0.5,1.9,1.3,3.3,1.6c0.2,0.5,0.8,0.8,1,1.4c0.4,0.2,0.8,0.3,1,0.7c4.4,1.2,6.8,4.1,10.5,5.9
		c0,0.8,0.7,0.9,1,1.4c0.2,0.2-0.1,0.4-0.1,0.8c0.6,0.4,0.9,1,1.6,1.3c0.4,0.6,0.1,1.3,0.2,2c0.2,0,0.4,0,0.3,0.2
		c0.5,0.1,0.4-0.3,0.8-0.3c1.4,0.2,3,1.7,4.4,0.3c1.1-0.1,7-0.3,7.5-0.9c0.2,0,0.5,0,0.7,0c0.8-1.2,2.3-0.5,3.8-0.9
		c0.4,0.3,1.1,0.7,1.8,0.4c-0.2-2-1.1-3.9-2.3-5.3C348.9,196.9,346.7,196.2,347.2,194.2z M323.8,106.4c-0.4,0.1-0.4-0.2-0.7-0.3
		c0.1-0.4,0.7-0.8,1.2-0.5C324.5,106.2,323.8,106,323.8,106.4z M294.7,98.4c-0.6-1.2-2.2-1.9-2.4-3c2.1,0.7,4.1,1.4,7,1.4
		c0.4-0.1,0.5-0.4,0.7-0.7c1.9-0.3,3.8,0.3,4.7-1.2c0.4,0.1,0.5-0.2,0.9-0.1c0.4-0.8,1.2-1.3,1.7-2c3,0.1,3.9-2.1,5.9-2.9
		c0.7-0.3,1.5-0.1,2-0.8c1.5,0,3.4-0.5,5.4-0.4c1.2,0.1,2.2,0.5,3.3,0.5c0,4.1,0.1,8.9-0.3,14.1c-4.1-0.8-8.5,0.5-12.9,0.3
		c-3.9-0.2-7.9,0.6-11.5,0.6c-1,0-2-0.2-2.8,0.1c-0.9-1.2-0.6-2.8-1.1-4.3C294.8,99.6,294.9,98.9,294.7,98.4z M324,120.7
		c0.2,2,0.4,4.4-0.1,6.2c-0.7-0.5-2.5-0.2-3.1-0.8c-0.4,0.2-1.7,0.2-2-0.2c-1.5,0.3-3.7-0.1-5.4,0.1c-0.8,0.5-2.2,0.7-2.9,0.2
		c-1.2,0.7-2.9,0.3-4.4,0.5c-0.5,0.1-0.9,0.3-1.4,0.4c-1.2,0.2-2.5,0-3.5,0.2c-1.5,0.2-3.7,0.7-5.6,0.7c-0.7-0.5,0-1.2,0.1-1.7
		c0.3-1.5-0.1-3.3,0.8-4.4c-0.2-0.4-0.2,0.2-0.5,0.1c-0.3-1.8,0.2-3.5,0.7-5.1c1.1-0.2,1.6,0.4,2.2,0.8c0.3,0,0.5,0,0.7-0.1
		c1.6,0.4,4.3,1.3,6,1.1c1.3-0.2,3.7,0,4-1.3c0.5,0,0.5,0.4,0.7,0.6c0.7,0,1.1-0.2,1.8-0.1c0.4-0.2,0.6-0.6,1-0.9
		c0.6,0.1,1-0.1,1.4-0.2c0.3-0.3,0.5-0.7,0.8-0.9c-0.1-1.8,2-2.4,2.7-3.8c1.4-0.4,2.9-0.8,3.7-1.8c0-0.2-0.2-0.4-0.1-0.7
		c0.6-0.6,1.3-1.4,2.1-1.4c0.2,3.5,0,7.7,0,10.6c0.5,0.3,0.7,0.8,0.7,1.5C324.5,120.7,324.1,120.5,324,120.7z M336.4,106.3
		c0.1,0,0.2,0,0.3,0c0.2,0.3,0.5,1.1,0,1.4C336.2,107.6,336.3,106.7,336.4,106.3z M335.7,129c-0.4,0-0.6-0.2-0.9-0.3
		C335,128,335.9,128.4,335.7,129z M335.3,126.8c-0.4-0.1,0-0.9-0.2-1.2c0.3-0.1,0.4-0.3,0.8-0.3
		C336.1,125.9,335.6,126.4,335.3,126.8z M336.2,113.4c0.1-0.5-0.1-1.2,0.3-1.5c0.8,0.2,0.6,1.1,0.3,1.8c-0.2-0.1-0.1-0.4-0.3-0.6
		C336.3,113,336.6,113.5,336.2,113.4z M337,138.6c0.5,0.5,0.5,1.6,0.5,2.3C336.7,140.6,336.4,139.3,337,138.6z M336.8,137.3
		c0.3,0,0.2,0.3,0.2,0.6C336.6,138,336.9,137.5,336.8,137.3z M337,136.9c-0.7-0.2-0.5-1.2-0.2-1.8c0.3,0.1,0.5,0.3,0.8,0.5
		C337.5,136.2,337.5,136.8,337,136.9z"/>
	<path fill-rule="evenodd" clip-rule="evenodd" fill="#FFFFFF" d="M437.3,45.4c0.4-0.3,1.1-5.7,0.9-6.2c-0.4-0.2-0.2,0.1-0.7,0.1
		c-0.1-0.4-0.2-0.8-0.5-1c-0.6,0-0.3,0.7-0.8,0.7c-0.4,0.1-0.2-0.3-0.4-0.4c0.1,0.5-0.8,0.7-0.9,0.3c0-0.5,0.6-0.5,0.4-1.1
		c-0.8-0.1-0.8-0.3-1.4-0.5c-0.4,0.3-0.8,0.6-1.5,0.6c-0.2-0.2-0.5-0.4-0.6-0.8c0.1-0.3,0.2-0.5,0.4-0.8c-2.8-0.6-6.4-0.3-9.1-0.3
		c-4-0.1-8.1,0.3-11.9,0.1c-1.4-0.1-2.6-0.8-4-0.5c-0.2,0.4,0.3,0.2,0.2,0.5c-0.8,0-0.9,0.1-1.5,0.1c0-0.3,0.1-0.6-0.1-0.7
		c-1.1,0.9-2.7,0.9-4.3,0.6c-1.3,0.7-2.9-0.2-4.5,0.3c-0.3-0.2-0.9-0.4-1.4-0.4c0,0-0.1,0.3-0.2,0.3c-0.9,0.1-3.2,0.6-3.6,0
		c0.2,0.2,0.8,0,1-0.1c-2.1-0.5-3.6,1-5.7,0.2c-1.1,0.6-7.3,0.7-8.2,0.4c-0.8,0.2-2.8,0.4-3.5,0.1c1.3-1.8,5.1-2.8,5.7-5.2
		c0.5,0,0.5-0.4,0.9-0.4c0.9-1,4.1-2.3,5.6-3c0.7-0.4,1.7-0.5,2.4-0.9c1.1-0.6,2.6-1.8,3.7-1.9c0.9-0.5,1.7-1.1,2.4-1.9
		c0.5,0.1,0.6-0.2,0.9-0.3c0-0.2-0.2-0.3-0.1-0.6c0.8-0.3,1.7-1,2.9-0.6c0.2-0.9,0.9-1.3,1.8-1.6c0.1-0.4,0.4-0.6,0.5-1
		c0.8-0.3,1.2-1.2,1.9-1.6c1-0.7,1-0.4,1.5-1.5c1-2.1,1.2-4,1-6.4c-0.1-1.6,0.3-3.1-0.5-4.6c-0.7-1.3-1.9-2.5-3-3.4
		c-1.3-1.2-4-0.6-5.8-0.6c-2,0-4.1,0.3-5.8,1.2c-0.9,0.5-2.1,3.5-2.7,3.3c-0.2-1.8-2.2,0.5-2.6,1.1c-0.6,0.7-0.7,1.6-1.1,2.4
		c-0.3,0.7-0.9,1.3-1.2,2c-0.2,0.7,0.5,3.8-1,3.3c-0.2,1.1-0.9,1.6-1.4,2.7c-0.3,0.7-1.3,2-1.2,2.7c-1,0.1-1.4,3.2-1.8,4
		c-0.9,2.4-2.3,4.5-3.1,6.8c-0.3,0.7-2.2,6.2-2.9,6.2c-1,0-1.8,0.1-3.5,0.1c-0.2-0.2-0.3-0.5-0.4-0.8c-1.3-0.3-1.8,0.4-2.7-0.1
		c0,1-0.9,0.9-1.6,0.8c-0.2-0.2-0.1-0.6-0.3-0.7c-0.4,0.1,0,0.3-0.3,0.5c-0.5,0-0.8-0.1-0.9-0.4c-1.6-0.2-3.4,0.1-4.6-0.2
		c-0.4-0.1-1.6,0.2-2.2,0.1c-0.6,0-1.6-0.4-1.9-0.4c-1.6-0.1-3.5,0.4-5.2,0.4c-3.7,0.1-7.7-0.8-11.2,0.2c-2.3,0.6-4-0.5-6.3-0.4
		c-2.5,0.2-5.2,0.1-7.8,0.4c-1.6,0.2-2.7,0.1-4.2,0.2c0.4,1.4-1.3,0.8-2.3,1.4c0-0.3-0.2-0.4-0.4-0.5c-1.2,0.7-2.7,0.4-4.1,0.7
		c-0.2,0-0.4,0.2-0.6,0.2c-0.9,0.1-1.7-0.2-2.6-0.1c-0.6,0-1.1,0.4-1.7,0.5c-1.7,0.3-3.4,0-4.9,0.5c-1.2-0.5-3.6,0.4-4-0.9
		c-2.3,0.1-4.7,0.6-6.7,0.6c-2.4,0-4.8,0.7-7,0.7c-0.8,0-1.2,0.1-1.9,0.2c-1.8,0.3-3.8,0.1-5.5,0.4c-2.8,0.5-5.8-0.2-8.6,0.1
		c-1.1-1.5-4.5-0.1-6.2-1.1c-1.2,0.6-2.4-0.6-3.3-0.5c-0.1-0.3-0.2-0.8-0.5-1c-1,0.3-1.5-0.1-2.8,0.2c-0.8,0.7-0.3,1.4,0.5,1.9
		c-0.3,0.4-0.5,0.8-0.4,1.5c0.5,0.2,0.7,0.8,1.1,0.9c0.2,0.3-0.1,0.4-0.2,0.8c0.5,0.2,0.7,0.7,1.2,0.9c0.8,1.5,2.5,2.2,3.6,3.4
		c0,0.2-0.1,0.4-0.2,0.4c-0.6,0.1-0.5-0.4-0.9-0.4c-0.4,0.2-0.1,0.5-0.2,1c0.2,0.2,0.5,5.4,0.9,5.5c0.3,0.7,0.5,1.5,1.3,1.9
		c0.2,0.5,0.1,1.1,0.5,1.5c1.4-1,2.5,0.6,3.3,1c0.4-0.2,1.7-0.4,2.1,0c-0.2,0.2-0.6,0.1-0.9,0.1c0.1,0.4,0.2,0.6,0.2,0.9
		c0.9,0.2,1-0.3,1.7-0.5c0.4,0.3,0.6,0.6,1.3,0.4c0.3,0.3,0.8,0.6,1.4,0.7c0.3,0.7,1.2,1,1.8,1.6c1.6,0.1,2,1.2,3.1,1.7
		c1.2,0.2,2.4,0.5,3.5,0.3c0.4-0.4,0.2-0.6,0.7-0.9c3.1,0.2,5.1-1.5,8.3-1.2c0.9-0.5,2.2-0.7,3-1.4c1.5,0.8,3.5-0.1,4.9-0.5
		c3.9-1.1,7.9-0.3,11.7-1.3c4.2-1,8.6-0.8,12.9-1.3c0.5-0.1,0.5-0.4,0.8-0.5c1.3-0.4,3.1-0.4,4.8-0.4c0.1-0.4,0.8-0.2,1.2-0.4
		c0.2-0.1,0.2-0.5,0.4-0.6c1.4,0.6,3.9,0.4,5.3-0.5c0,0.6,0.7,0,1,0.3c0-0.6,0.8-0.3,1.1-0.3c0.1-0.4,0.5-0.4,0.9-0.5
		c0.3,0,0,0.5,0.4,0.4c0.3-1,1.8-0.3,2.2-1c0,0,5.5-0.2,6-0.3c1.9-0.4,3.9-0.6,5.8-0.9c2.3-0.3,4.7-0.5,7.1-0.6c1.1,0,2.3,0.1,3.4,0
		c0.6,0,1.4,0,2-0.2c0.2-0.1,0.5-0.1,0.8-0.2c0.2-0.1,0.1-0.7,0.2-0.7c0.6-0.2,1.3,0.2,2.1,0.2c1.1,0,3.7-1.1,4.4-0.3
		c0,0-0.6,0.4-0.5,0.4c1,0.4,2.5-0.2,3.6-0.2c1.3-0.1,2.8-0.3,4.1-0.5c0.4-0.1,0.6,0.2,1,0c0,0,0.3-0.7,0.5-0.8c0.5,0.8,0.2,1,1.1,1
		c0.3,0,0.8-0.5,1.1-0.6c0.7-0.2,1.5-0.1,2.2-0.1c2.2-0.1,4.6,0.2,6.7-0.2c1.7-0.3,2.9-0.9,4.7-0.9c3,0,6,0,9.1,0
		c1.5,0,3.2,0.1,4.7-0.2c0.9-0.2,1.7-0.8,2.2,0.4c0.2,0,0.6-0.1,0.8-0.2c-0.1-0.2-0.1-0.6,0.2-0.7c0.1,0,0.3,0,0.4,0
		c0,0.2,0,0.4,0.2,0.8c1,0.1,1.4-0.3,2.4-0.2c0.4-0.7,2.8-1,3.2-0.2c0.2-0.1,0-0.6,0.4-0.6c0.7,0.1,0.3,0.5,0.6,0.9
		c0.3-0.9,1.2-0.7,2.2-0.7c0.2-0.2,0.9-0.5,1.1-0.1c-0.1,0.2-0.1,0.5-0.3,0.7c0.5-0.1,0.5-0.6,1.1-0.7c0.4,0.2,0.5,0.9,1.1,0.7
		c0.2-0.4-0.2-0.4-0.2-0.7c0.1-0.1,0.3-0.1,0.6-0.1c0.1,0.3-0.1,0.4,0.1,0.8c0.9-0.1,1.5,0.1,2.2-0.2c0.2-0.2-0.3-0.4,0-0.5
		c0.6,0.2,0.8,0,1.1-0.3c0.6,0.4,1.4,0.2,1.9,0.1c0.3,0.2,0.1,0.8,0.5,0.9c0.9-0.4,2.1-1.6,1.4-2.4c1.1-0.2,1,0.3,2,0.3
		c0.2-0.7,0.8-0.4,1.1-0.6c-0.2-0.5-1.2-0.5-1.2-1.2C435.7,44.3,436.5,44.9,437.3,45.4z M428.3,37.3c0.2-0.6,2.3-0.6,2.1,0.2
		C429.7,37.6,429,37.5,428.3,37.3z"/>
	<path fill-rule="evenodd" clip-rule="evenodd" fill="#FFFFFF" d="M310.3,2c1.6,1.4,1.9,3.5,2.9,5.4c0.5,1,1.3,1.8,1.6,2.9
		c1.3,2.1,2.5,4.3,3.5,6.8c0.8,0.8,1.4,1.8,1.9,2.7c0.8,1.5,1.8,2.8,2.5,4.1c0.3,0,0.6,0.1,0.9,0.2c0,1.1,1.2,1.7,1.6,2.5
		c0.5,0.9,0.6,2,1.1,3c2.2,1.6,4.8,3.8,8.3,3.5c1.6-0.1,2.7-0.7,4.1-1.2c0.6-1.2,1.9-2.2,2.3-3.7c0.1-0.3,0-0.6,0.1-0.9
		c0.1-0.5,0.6-0.9,0.7-1.4c0.2-1-0.3-1.9-0.3-2.7c0-0.8,0.3-1.5,0.1-2.2c-0.5-2.1-2.2-3.3-3.5-4.5c-0.5,0.1-0.7-0.2-1.2-0.1
		c0-1.1-0.9-1.4-2.2-1.5c0-0.6-0.6-0.7-0.8-1.2c-1.9-0.5-2.9-1.8-4.7-2.5c0.1-0.3-0.1-0.3-0.1-0.5c-1.5-0.5-2.8-1.2-4.3-1.8
		c-0.2-0.2-0.4-0.4-0.5-0.6c-1.8-0.4-2.7-1.5-4.4-2c-1.8-1.3-3.6-2.6-5.7-3.6c-0.4-0.6-0.9-1.1-1.6-1.5c-1.2-0.7-2.7-1.3-3.8-1.6
		c0,0.1,0,0.3,0,0.4c0.3,0.5,0.7,1,1,1.3C310.1,1.8,310.2,1.9,310.3,2z"/>
	<path fill-rule="evenodd" clip-rule="evenodd" fill="#FFFFFF" d="M221.6,53.9c-0.8-0.2-15.4,0.2-16.2,0.1c-1.4-0.2-3-0.3-4.2-0.8
		c0.3-2.2,0.1-4.3,0.2-6.4c0.1-0.8,0.4-1.5,0.4-2.2c0.2-2.3,0.1-4.4,0.3-6.5c0.2-2.1,1.2-3.7,1-5.7c1-0.9,0.8-2.3,0-3.2
		c0.5-0.7,0.3-1.2-0.1-1.8c-2.6-1.1-6.1-1.8-8.6-1.4c0.9,0.1-0.3,0.5-0.3,0.7c0.4,0.1,0.3,1.3,0,1.4c-1,0.2-2.5-0.1-2.6-1.3
		c0.2-0.3,1.2,0.1,1.2-0.4c-1.1,0-2.8-0.4-4.2-0.2c-0.9-1.3-3.4-0.7-5.5-0.6c-3.4,0.2-3.7,0.2-6.4-0.2c-0.3-3.5-1.2-10.5-2.6-13.4
		c-0.9-0.3-4.4-1-4.7-1.9c-3.6-3.1-9.5-3.5-12.9-7c-0.4,0.5-0.1,1.6-0.6,2c0.7,1.2,1.6,2,2.4,3.1c0.5,1.5,0.6,3,0.6,4.7
		c0,3.8,0.5,8.4-0.2,12.4c-1.7,0.3-4.5,0.4-6.6,0.4c-3.7,0-5.5,0-9.2,0.1c-3,0.1-6.1,0.1-8.8,0c-1.2,0-1.6-0.6-2.4-0.7
		c-1.2-0.2-2.2,0-3.4,0.2c0,0.6,0.8,0.5,1,0.9c0.3,0.4,0.4,0.9,0.4,1.5c2,2.6,3.8,9.7,7.1,10.9c0.3,0.9,1.1,0.7,1.9,1.1
		c0.6,0.2,1.1,0.9,1.6,1.1c1.4,0.5,3.6,0.4,4.9,0.4c2.2,0,4.5,0.2,6.7,0.1c3-0.1,3.9-0.8,6.1-0.5c0.2,5.2,0.2,5.6,0.3,11.4
		c-5.5,0.2-7.6,0.3-12.8,0.7c-6.2,0.5-20.8,0.3-26.8,1.1c-0.4-0.1-0.8-0.4-1.1-0.6c-4-0.2-9.5-0.1-13.2-1.8
		c-0.5-0.2-0.9-0.9-1.6-0.7c1.2,3.2,2.9,5.8,4.6,8.5c0.7,0.5,1.4,0.9,2,1.4c0.6,0.5,1,1.4,1.6,1.9c1.5,1.3,4.6,5.9,7,6.3
		c3.5,0.7,16,0.4,19.8,0c3.7-0.4,7.6-0.8,10.8-0.9c1.3,0,0.5-0.4,1.7-0.6c2.8-0.3,4.9-0.4,8-0.5c0.3,3.7,0,8.6-0.4,12.8
		c-2,0.9-4.9,1.2-7,1.2c-1.6,0.7-1.6,1-3.6,0.9c-1.3,0.8-3,0.8-4.4,1.1c-0.2-0.5,0.5-0.8,0-0.8c-1.7-0.3-3.3,0.4-4.9,0.5
		c-1.3,0-3.1,0-4.2-0.1c-1.4-0.2-2.1-1.6-3.6-1.3c0,0.7,0.1,0.9-0.1,1.4c1.8,4.3,4,12.8,7.6,14.7c3.3,0.8,7.3-0.2,10.3-1.3
		c4-0.2,4.7-2.9,9-2.2c0.3,0.9,0,1.8,0,2.7c-0.2,6.1,0,3.2-0.8,8.9c-3,0.7-4.2,1.2-7.4,1.1c-0.6,0.2-0.7,0.4-1.2,0
		c-0.1,0.6-1,0.3-1.6,0.4c0-0.2,0.4-0.6-0.1-0.6c-2.3,0-5.9,0.6-8.2,0.1c-2-0.4-3.1-1.8-4.8-2.5c-0.4,0.8,0.5,1.2,0,2.2
		c0.6,1,0.9,2.1,1.3,3.2c1,2.2,2.1,4,3.5,5.7c1.6,2,3.5,7.3,6.1,7.9c5.6,1.2,7.7-1.2,12.4-1.5c0.7,4.6-0.3,6.7,0.3,11.5
		c0.1,0.7,0.3,1.2,0,1.8c-5.7,1.7-11.4,1.2-16,2c-0.3-0.2,0.2-0.5-0.1-0.7c-0.4,0.2-1.5-0.2-2,0.1c-0.1,0.4,0.4,0.1,0.2,0.6
		c-0.6-0.1-1,0.3-1.5,0c-0.1-0.4,0.4-0.2,0.1-0.5c-3,0.6-14.4,0.1-17.2,0.2c-2.8,0.1-5.6,0-8.3-0.2c-1.4-0.1-1.5-0.4-2.5-0.8
		c-0.3-0.1-0.6,0-0.9-0.1c-0.8-0.4-1.5-1.2-2.4-1.4c-0.4-0.1-0.9,0-1.5-0.1c0,1.5,1.9,2,1.7,4.1c2,2,4,4,5.6,6.4
		c1.4,0.7,2.3,2,3.7,2.8c0.9,0.5,2,0.7,2.8,1.5c10.5,3.5,27.6,1.2,38.5,0.2c0.7,2.8,0.4,5.9,0.6,8.7c0.2,3.9,0.9,7.6,1.1,11.6
		c0.3,4.5,0.2,8.6,1.1,12.6c1.8,0.7,8.8,1,10.4,1.8c1-1.5,0.2-2.9,0.1-4.5c-0.1-1.2,0.2-2.5,0-3.5c-0.1-0.5-0.5-1.1-0.7-1.8
		c-0.3-1.5,0-3.1-0.7-3.8c-0.1-1.7-0.4-3.7-0.9-4.8c0,0.5,0.1,1.2-0.4,1.1c-0.3-0.3-0.6-1.6-0.1-2c0.4,0.1,0.2,0.8,0.7,0.8
		c-0.3-3.5-0.2-7.7-0.7-10.7c-0.4,1.1,0.1,2.1,0.1,3.4c0,1-0.3,2.2-0.2,3.1c0,0.6,0.8,1.5-0.1,1.9c-0.3-1.9-0.3-3.3-0.4-5.2
		c-0.1-1.1-0.4-2-0.4-2.6c-0.1-0.6,0.2-1.3,0.1-1.9c0-0.3-0.2-0.6-0.2-0.9c0-0.8,0.4-1.4,0.2-2.1c-0.1-0.4-0.6-0.5-0.6-1.1
		c0.3-0.5,1.2-0.8,1.5-0.1c0.4-0.2,0.4-0.7,0.9-0.7c4.3-0.1,4.5-1.2,8.2-0.8c0.4-0.1,0.4-0.5,0.9-0.5c1.1,0.2,1.7-0.4,2.7-0.6
		c1.6,0.6,3,0.3,4.9,0c1.7-0.2,3.6-0.2,5.3-0.5c3.8-0.6,11.8-0.9,15.7-0.9c1.1,0,2.2,0.3,3.3,0.4c2.7,0.1,9.6,0.2,12.1,1.1
		c0.1-0.7,0.7-0.9,1.3-1.1c0.1-0.8-0.8-0.9-0.4-1.5c0.3-0.3,1.1,0.1,1.2-0.4c-0.3-1-1.7-1-1.9-2.1c0.8,0.1,0.6-0.5,0.6-0.9
		c0.3,0,0.6,0,0.8-0.1c-0.1-0.7-0.7-0.9-0.5-1.9c-0.5-0.4-1.3-0.6-1.3-1.4c-1.5-1-2.9-2.1-4.3-3.2c-0.8,0.4-6.3,0.4-7.5,0.2
		c-2.6-0.3-9.9-0.4-12.4-0.4c-1.2,0-2.5-0.6-3.8-0.6c-7.7,0.1-12.8,0.8-20.8,0.9c-1.3,0.4-3.4,0.6-4.7,0.4c-0.4-1.5,0.6-0.2,0.4-2
		c1-0.6,1.2-2.2,1.3-3.7c0.1-1.9,0.3-4,0.4-6c0.1-1.4-0.4-3.1,0.7-3.7c0.4,0.8,0.1,1.5,0,2.4c-0.1,1,0.1,2.2,0,3.2
		c-0.3,2.1-1.4,4.3-0.1,5.9c0.5-0.5,0.6-1.5,0.7-2.4c0.2-3,0.1-6.8,0.6-9.1c0.9-0.7,2-0.3,2.9-0.6c1.8-0.5,0.5-1.3,2.3-1.8
		c0.9-0.2,1.9-0.3,2.8-0.5c0.9-0.2,1.9-0.6,2.8-0.8c1.4-0.3,2.9-0.3,4.3-0.7c1.2-0.3,2.2-1.1,3.4-1.3c1.4-0.3,3.4-0.3,4.4-0.8
		c1.2-2.4,0.5-8.2,0.1-11.1c-4.4,0.5-9.3,1-13.8,1.8c-2.2,0.4-4.8,0.4-7.2,0.7c-1.4,0.2,0.3,0.9-0.9,0.3c0.3-6,0.3-5.6,1.7-11.8
		c0.5-0.1,0.1-0.2-0.2-0.2c0,0.1,0,0.2-0.1,0.2c-0.4-0.1-0.2-0.2,0.1-0.2c0-0.2-0.1-0.6,0.1-0.5c5.7-0.7,12.6-0.6,19.8-0.2
		c0.3,0.2,0.7,0.8,1.2,0.8c0.6,0,1.2-0.8,1.9-0.8c0.3,0,0.8,0.2,1.3,0.2c2.2,0.1,4,0,5.3,0.7c0.6-0.4,1.7-0.4,2.1-1.3
		c-0.9-2.4-1-9.4-2.1-11.6c-0.9,0-1.4-0.5-2.1-0.7c-0.7-4.1-0.7-9.6-0.3-13.6c2.4,0,18.2,0.3,20.2,1.1c0.8,0.3,1.3,0.8,2.4,0.4
		c0.4-1.2,0.6-6.7,1-8c-0.2-1.1-0.3-1.5-0.8-2.2C223.7,55.4,222.2,54.1,221.6,53.9z M171.3,104.4c-0.4,0-0.3,0.1-0.7,0
		c0.1-1.2,0.1-1.5,0.3-2.5C171.6,102.2,171.5,103.7,171.3,104.4z M187.6,103.2c0.5-0.3,1.7-0.8,2-0.1c-1.4,0.6-3.6,1.2-5.3,0.8
		C184.8,103.1,186.5,103.1,187.6,103.2z M184.2,103.7c-0.1,0.1-0.3,0.1-0.2,0.4c-0.2,0-0.4-0.1-0.3-0.4
		C183.8,103.7,184,103.7,184.2,103.7z M192.5,34.3c0.2,0,0.4,0,0.7,0c0.1,0.4-0.4,0.2-0.7,0.2C192.5,34.4,192.5,34.4,192.5,34.3z
		 M190.8,67.5c-0.2,3.1,0.3,7.8,0.1,10.5c-0.9,0.5-1.5,0.1-2.4,0.1c-5-0.2-7.4,0.5-13.1,0.7c-0.7-3.3,1.1-9.6,0.6-13.1
		c1.7-0.7,1.1-0.5,2.4-1.6c3.9-0.2,8.9-0.1,13.2,0.5C191.5,65.9,191.7,67,190.8,67.5z M193.7,39.4c-1,3.7-1.1,8-1.7,11.4
		c-0.5,0.5-1.2,0.7-1.1,1.7c-4.8,0-8.4-0.2-14.6-0.2c-0.3-5,0.6-7.9,0.8-14.2c2.5,0.6,1.8-0.9,4.3-0.9c-0.2-0.5-1.3-0.1-1.2-0.8
		c0.9,0.1,1.4-0.4,1.9-0.7c4.3,0.3,7-0.5,11.3-0.1c0.3,0.7-0.1,1.1-0.2,1.8c0.3,1,0.9,0.5,1.5,0.6C194.6,39.8,194,37.2,193.7,39.4z
		 M197.9,28.1c-0.4,0-0.5-0.4-0.7-0.6c-0.3,0.6-1.1-0.3-0.9-0.6c-0.4-0.2-1-0.2-1-0.7c0.6,0,1.3,0.1,2.2,0.2
		c0.1,0.4-0.3,0.2-0.3,0.5c0.6,0,0.3,0.4,1,0.5C198.3,27.8,198.1,28,197.9,28.1z M197.5,26.8c0.1-0.3,0.9-0.4,0.8,0.2
		C198,27,197.8,26.9,197.5,26.8z M198.5,26.8c0.5,0.1,1.1,0.1,1.5,0.4C199.9,27.4,198.7,27.2,198.5,26.8z M200.6,78.2
		c-0.6-0.2-0.3-0.9-0.4-1.3C200.5,77.1,200.7,77.8,200.6,78.2z"/>
	<path fill-rule="evenodd" clip-rule="evenodd" fill="#FFFFFF" d="M178,214.1c-0.4,0-0.7,0.2-1.1,0.1c-3.3-0.3-7.6-1.2-10.4-1.7
		c-1.4-0.3-2.9-0.4-4.2-0.8c-0.2-0.1-0.4-0.3-0.7-0.4c-1.9-0.4-4.4-0.3-5.5-1.3c-1.5,0.4-3.2-0.7-4.9-1.1c-2.9-0.6-6-0.7-8.6-1.8
		c2.3-0.8,5.7-0.3,8.4,0.8c1.4-0.5,2.8,0.4,4.2,0.5c0.1,0,0.5-0.3,0.7-0.3c0.3,0.1,0.7,0.5,1.1,0.7c1.4,0.5,3.8,0.8,4.2-0.1
		c1.1,0.3,1.8-0.3,3.2,0c0.6,0.7,1.8,0.2,2.5,1.1c1.6-0.3,3,0.8,5.3,0.4c-2.9-0.7-5.3-1.6-7.9-1.6c-0.6-0.8-1.6-2.6-2.5-2.8
		c-2-0.5-3.9-1.2-5.9-1.6c-6-1.2-12.1-2.7-18.2-4.1c-4.1-1.4-8-2.6-11.9-4.1c-1.7-0.6-3.5-0.9-4.9-2c0.1-0.5,1,0,0.8-0.8
		c-4.2-2-8.8-3.7-13.4-5.3c-0.5-0.4-1-0.8-2-0.8c-1.4-1.2-3.3-1.3-4.9-2.1c-0.3-0.2-0.5-0.5-0.8-0.7c-0.3-0.1-0.6,0-0.9-0.1
		c-1.7-0.7-3.4-1.9-5.1-2.6c-0.4-0.2-0.9-0.1-1.3-0.3c-0.7-0.3-1.3-0.9-2-1.2c-4.1-1.7-8.1-2.8-11.6-5.1c-4.8-1.6-8.4-4.3-13-5.9
		c-1.4-1.1-3.1-2-5-2.6c-0.7-0.5-2.2-1.6-3.2-1.1c2.4,1.5,4.7,3,7.5,4.1c1,1,2.5,1.6,3.8,2.2c0.2,0.7,1.7,0.8,1.4,1.6
		c-4.3-1.9-9-4.6-13.4-6.9c-1.3-1.2-3-2.1-4.7-3c1.3-2,2.6-2.1,4-4c2.4-3.4,4.8-6.9,6.8-10.9l0.1-0.1l0.1-0.1
		c0.8-0.5,1.2-1.3,1.7-2.3c0.5-1,1.1-2,2-2.6c0.3-0.5,0.6-1.1,1.1-1.5c0-0.2,0.1-0.3,0.1-0.4c0,0,0-0.1,0-0.1l0-0.4l0.3-0.1
		c0.2-0.1,0.3-0.2,0.5-0.4c0.3-0.2,0.6-0.5,1-0.7c0.8-1.3,1.5-2.7,2.3-4c1.4-2.6,2.9-5.3,4.8-7.6c-0.1-1.9,1.2-3.2,2.2-4.1
		c0-0.7,0.3-1.2,0.5-1.5c0.2-0.4,0.4-0.7,0.4-1.2l0-0.3l0.2-0.2c0.2-0.2,0.4-0.5,0.7-0.8c0.2-0.3,0.4-0.6,0.8-0.9
		c0-0.2,0.1-0.4,0.1-0.5c0.1-0.2,0.1-0.5,0.1-0.7l0-0.1l0-0.1c0.3-0.6,0.6-1,0.9-1.3c0.1-0.1,0.2-0.2,0.3-0.3
		c0.3-0.3,0.4-0.9,0.5-1.5c0.1-0.6,0.3-1.3,0.6-1.7c0.1-0.2,0.3-0.4,0.5-0.6c0.9-1.2,1.8-2.3,1.7-3.8l0-0.2l0.2-0.2
		c1-1.1,1.8-2,1.8-3.7l0-0.5l0.5,0c0,0,0-0.1,0-0.1c0.1-0.2,0.2-0.6,0.7-0.7c0.7-1.9,1.6-3.7,2.5-5.5c1.4-2.9,2.9-6,3.7-9.7l0-0.2
		L97,88c1-0.9,1.6-2.4,2.1-4c0.1-0.3,0.2-0.7,0.4-1l0.1-0.2l0.2-0.1c0.6-0.3,1.3-0.9,1.2-1.6l0-0.2l0.1-0.2c0.7-0.9,2.1-2.9,1.8-4.7
		c-0.1-0.4-0.4-0.7-0.7-1.1c-0.5-0.5-1-1.2-0.9-2.1c-0.8-1.2-1.7-1.8-2.8-2.1l-0.4-0.1l0-0.4c0,0,0,0,0,0c-2.3-0.6-4.8-1-7.6-1.3
		c0,0.3-0.1,0.7-0.2,1.1l-0.1,0.3L90,70.3c-0.2,0.1-0.4,0.2-0.7,0.3c-0.3,0.1-0.6,0.3-0.9,0.4c-0.7,1.7-2,0.6-3.2,1.6l-0.1,0.1v1.1
		l-0.2,0.2c-2.6,2.2-6.1,3.6-9.4,5c-2,0.8-3.9,1.6-5.6,2.5c-0.3,0.2-0.8,0.3-1.1,0.4c-0.2,0-0.4,0.1-0.6,0.1c-0.5,0.2-1,0.3-1.7,0.6
		c-0.4,0.1-0.7,0.3-1.1,0.4c-0.7,0.3-1.5,0.5-2.2,0.8c-1.2,0.4-2.3,1.7-3.6,1.9l-0.2,0c-0.4,0.1-0.7,0.1-1,0.3
		c-0.2,0.1-0.4,0.3-0.7,0.4c-0.2,0.2-0.5,0.3-0.7,0.5c-0.1,0-0.7,0.2-0.7,0.2c0.2-0.4,0.3-0.7,0.5-1.1c0.1-0.1,0.2-0.2,0.3-0.3
		c0.1-0.1,0.2-0.2,0.3-0.3c0.1-0.1,0.2-0.3,0.3-0.4c0.4-0.6,0.9-1.1,1.5-1.6c0.2-0.4,0.4-0.8,0.6-1.1c0.6-1.3,1.3-2.6,2.4-3.5
		c0.3-1.1,0.7-1.8,1.4-2.2c0.6-1.4,1.3-2.6,2-3.7c0.2-0.3,0.4-0.6,0.6-0.9l0.1-0.1l0.1-0.1c0.6-0.3,1-0.9,1.4-1.6
		c0.4-0.7,0.8-1.4,1.6-1.9c0.1-0.3,0.2-0.6,0.3-0.9L70,67h0.5c0.5-1.2,1.2-2,1.8-2.9c0.8-1,1.5-2,1.9-3.4l0.1-0.2l0.2-0.1
		c1.4-0.9,2.1-2.5,2.8-4.2c0.6-1.4,1.2-2.8,2.3-3.9c0-0.1,0.1-0.2,0.1-0.4c0-0.1,0.1-0.3,0.1-0.4l0-0.2l0.2-0.1
		c0.9-0.5,1.2-1.7,1.6-2.9c0.2-0.7,0.5-1.4,0.8-2l0.1-0.1l0.1-0.1c1.2-0.7,2.1-1.7,3-2.7c0.8-0.9,1.5-1.8,2.5-2.5
		c0.6-1.1,1.5-1.8,2.4-2.6c1-0.8,1.9-1.6,2.4-2.7l0.1-0.2l0.2,0c0.2,0,0.4-0.2,0.6-0.3c0.3-0.2,0.7-0.4,1.3-0.4c0,0,0-0.1,0-0.1
		c-0.1-0.8-2.1-2.1-3.7-3.1c-1.5-1-2.8-1.8-3.3-2.6c-0.5-0.8-1.3-1.4-2.1-1.9c-0.2-0.2-0.5-0.3-0.7-0.5c-0.1,0-0.2,0-0.2,0
		c-0.3,0-0.5-0.2-0.6-0.4c-2.6,1.2-5.3,1.7-8.2,2.3c-8.5,1.6-17.4,4-26.1,6.3c-1.8,0.5-3.6,1-5.4,1.4c-1.8,0.5-3.5,0.9-5.1,1.3
		c-2.7,0.6-5.3,1.3-8,2.1c-3.8,1.2-8.2,2.5-12.3,3.3l-0.4,0.1c-0.7,0.1-1.5,0.3-2.3,0.3c-0.6,0-1-0.1-1.4-0.3l-0.1-0.1l-0.1-0.1
		c-0.2-0.3-0.3-0.7-0.5-1.1c0-0.1-0.1-0.2-0.1-0.3c-0.4-0.3-0.8-0.4-1.5-0.4c-0.4,0-0.8,0-1.2,0.1c-0.7,0.1-1.4,0.1-2,0
		c-0.3,0.7-0.4,1.6-0.4,2.5c0,0.5,0,1-0.1,1.5c0.3,0.6,0.4,1.3,0.4,1.9c0,0.3,0,0.6,0.1,0.9c0.2,1.1,0.6,2.1,1.1,3.2
		c0.5,1.1,1,4.2,1.2,5.5c0.3,0.3,0.5,0.6,0.8,0.9c0.7,0.9,1.4,1.7,2.7,1.9l0.3,0l0.1,0.3c0.1,0.4,0.4,0.6,0.6,0.9
		c0,0.1,0.1,0.1,0.1,0.2c0.5,0,0.9,0.2,1.3,0.4c0.3,0.1,0.5,0.3,0.8,0.3c0.8,0.1,1.6-0.1,2.5-0.3c0.7-0.2,1.4-0.3,2.2-0.3
		c0.3,0,0.7,0,1,0.1c0.6-0.2,1.3-0.4,2-0.5c1.2-0.3,2.5-0.5,3.3-1.3l0.1-0.1l0.1,0c1.9-0.3,3.3-0.8,4.8-1.3c0.9-0.3,1.7-0.6,2.7-0.8
		c0.5-0.6,1.1-1.1,2-1.4l0.2,0l0.2,0.1c0.3,0.1,0.6,0.2,0.9,0.2c1,0,1.8-0.7,2.4-1.3l0.1-0.1l0.1,0c0.7-0.1,1.4-0.2,2-0.2
		c0.7,0,1.3-0.1,1.8-0.3c0.5-0.2,0.9-0.5,1.3-0.8c0.7-0.6,1.5-1.2,2.7-1.2c0.2,0,0.4,0,0.7,0.1c1.8-1.4,4-2.2,6.1-3
		c1-0.4,2-0.8,3.1-1.1c0,0-0.6,1.2-0.7,1.4l-0.2,0.4l-0.2-0.1c-0.1,0.1-0.1,0.1-0.2,0.2c-0.5,1.5-1.4,2.6-2.2,3.7
		c-0.6,0.8-1.2,1.6-1.6,2.5l-0.1,0.1c-1.1,1.1-1.9,2.5-2.7,3.9c-0.7,1.2-1.4,2.5-2.3,3.6c-0.6,1.5-1.6,2.7-2.4,3.9l-0.2,0.3
		c-0.9,2-2.2,3.7-3.3,5.2c-0.1,0.2-0.2,0.4-0.3,0.6c-0.5,1.1-1.1,2.2-2,2.9c-0.2,0.7-0.6,1.1-0.9,1.5c-0.3,0.3-0.6,0.6-0.7,1l0,0.1
		l-0.1,0.1c-2,2.2-3.8,4.5-5.6,6.7c-0.8,0.9-1.6,1.9-2.3,2.8c-0.2,0.3-0.5,0.6-0.7,0.9c-1.1,1.4-2.3,2.9-3.7,3.3l-0.2,0.1l-0.2-0.1
		c-0.2-0.1-0.4-0.2-0.6-0.3c-0.1,0.8-0.5,1.8-1.6,2.2c0.2,0.7,0,1.5-0.2,2.1c-0.1,0.3-0.3,0.6-0.5,0.7c0.1,0.4,0.1,0.9-0.1,1.3
		c-0.3,0.5-0.8,0.8-1.3,0.7c-0.1,0.3-0.1,0.6-0.1,1.1l0,0.3l-0.2,0.2c-0.1,0.1-0.3,0.2-0.4,0.2c-0.1,0-0.2,0.1-0.2,0.1
		c-0.1,0.2,0,0.3,0.2,0.5c0.1,0.2,0.4,0.4,0.4,0.8l0.1,0.2l-0.2,0.2c-0.1,0.1-0.2,0.2-0.3,0.3c-0.1,0.1-0.1,0.1-0.1,0.1
		c0,0.1,0.1,0.2,0.1,0.3c0.3,1.1,0.5,1.8,1.2,1.9c0.4,0.1,11.2-0.2,11.9-0.5c0.6-0.2,1.3-0.5,2-0.6c3-0.7,5.1-1.2,7.2-2l0.1,0
		c1.4-0.3,2.6-0.7,3.6-1.3l0.2-0.1l0.2,0.1c0.2,0.1,0.5,0.1,0.7,0.1c0.9,0,1.9-0.5,2.6-0.9l0.4-0.3l0.2,0.4c0.1,0,0.3,0,0.4,0
		c1.1-0.5,2.6-0.7,4.3-0.9c1.7-0.2,3.5-0.3,4.8-1l0.1,0l0.1,0c2.1,0,4.3-0.7,6.3-1.3c1.4-0.4,2.8-0.8,4-1l0.7-0.1l-0.1,0.7
		c-0.5,2.4-1.3,4.7-2.1,6.9c-0.3,0.7-0.5,1.4-0.8,2.1c-0.7,2-1.7,4.2-2.6,6.3c-0.5,1.2-1,2.3-1.5,3.3c-0.1,0.2-0.1,0.4-0.1,0.7
		c0,0.3-0.1,0.6-0.2,0.9c-0.2,0.5-0.5,1.1-0.8,1.6c-0.3,0.5-0.5,0.9-0.7,1.3c0,0.1-0.1,0.2-0.1,0.4c0,0.2-0.1,0.5-0.2,0.7
		c-0.1,0.3-0.3,0.5-0.5,0.8c-0.2,0.2-0.3,0.4-0.4,0.6c0,0,0,0.1,0,0.1c0,0.1,0.1,0.4,0,0.6c-0.2,0.5-0.5,1-0.7,1.5
		c-0.2,0.3-0.4,0.7-0.5,1c-1.4,3.3-3.1,7-5.3,11.1c-0.4,0.7-0.7,1.4-1.1,2.1c-0.7,1.4-1.4,2.8-2.1,4.1c-0.8,1.4-1.6,2.8-2.5,4.2
		c-2.5,4.1-3.9,7.3-6.7,11.3c-2.3-1.6-4.7-3.2-7.1-4.8c-5.7-3.6-15.7-7-20.1-12c-0.6-0.7-1.2-1.4-2.4-1.6c-1.3-1.3-3-2.3-4.5-3.3
		c-0.7-0.4-1.5-0.8-2.1-1.3c-2.3-1.7-4.7-2.3-5.7-4.7c-0.9-0.6-2-1.1-3.4-1.3c-0.3,4.1,2.3,6.7,4.2,9.6c0.3,0,0.6,0,0.8,0.1
		c0.9,0.8,1.4,2,2.4,2.8c0.3,0.3,0.9,0.3,1.2,0.5c0.4,0.3,0.8,0.9,1.3,1.3c0.6,0.5,1.5,1.2,1.6,1.8c1.9,0.7,2.3,2.8,4.3,3.3
		c-0.1,0.4,0.2,0.5,0.3,0.8c2.6,2,5.1,4.2,7.5,6.2c4.7,3.9,9.6,7.5,14.5,10.9c-5.1,5.4-10.5,11.2-17.7,13.6
		c-0.8,0.3-1.7,0.5-2.5,0.7c-0.9,0.2-1.8,0.4-2.7,0.8c-0.8,0.3-1.6,0.6-2.4,1c-0.8,0.4-1.6,0.8-2.4,1c-2.6,0.9-4.8,1.3-6.8,1.3
		c-1.3,0-2.6-0.2-3.8-0.5c0.2,0.4,0.5,0.7,0.7,0.9c0.1,0.1,0.3,0.1,0.5,0.1c0.2,0,0.5,0,0.7,0.1c0.5,0.2,0.8,0.5,1.2,0.8
		c0.4,0.3,0.7,0.6,1.1,0.7l0.4,0.1l0,0.4c0,0.1,0,0.2,0.1,0.3c0.1,0.1,0.2,0.3,0.3,0.6c0.2,0,0.4,0,0.6,0c0.8,0,1.5,0.1,2.3,0.2
		c0.9,0.1,1.7,0.3,2.5,0.2l0.2,0l0.2,0.1c0.2,0.2,0.2,0.4,0.3,0.6c0.4,0,0.9,0,1.3,0c0.6,0,1.1-0.1,1.7-0.1c0.9,0,1.7,0.1,2.4,0.2
		c0.1,0,0.1,0,0.1,0l0.1,0c0.5,0,1.1-0.2,1.8-0.4c0.5-0.1,1-0.3,1.5-0.3c0.8-0.1,1.1-0.4,1.6-0.7c0.3-0.2,0.6-0.4,1-0.6
		c0.7-0.3,1.4-0.4,2.1-0.5c0.6-0.1,1.2-0.2,1.7-0.4c0.9-0.3,1.7-0.8,2.5-1.2c0.5-0.2,0.9-0.5,1.3-0.7c0.3-0.1,0.6-0.2,0.8-0.3
		c0.6-0.2,0.9-0.4,1.1-0.8l0.1-0.2l0.2-0.1c0.1,0,0.2-0.1,0.3-0.1c0.1-0.1,0.3-0.1,0.4-0.2c0.1-0.2,0.2-0.6,0.7-0.7l0.5,0
		c0.4-0.6,1-0.8,1.6-1.1c0.4-0.2,0.8-0.3,1.2-0.6c3-2.1,5.8-4.4,8.5-6.8c0.5-0.4,1-0.9,1.5-1.4c3.3,2.1,6.6,4.3,10,6.3
		c0.3,0.3,0.8,0.3,1.2,0.5c3,1.7,5.4,3.9,8.8,5.1c1.1,1.6,3.7,1.7,5,3.2c2.5,0.1,4.1,2.3,6.9,2.6c0.5,0.7,1.7,1,1.6,1.6
		c6,2.9,12.8,5.2,19.2,8c0.8,0,0.8,0.1,1.4,0.1c0.3,0.3,0.7,0.4,1.1,0.7c0.1-0.3,0.6-0.1,0.9-0.1c1.5,0.5,2.9,1.1,4.6,1.3
		c0.6,0.4,1.3,0.8,2.2,0.8c2.3,1.4,5.5,1.6,8.2,2.6c0.9,0.4,2.5,1.2,3.6,0.9c-0.2,0.5,0.4,0.3,0.4,0.7c3.1,0.7,6.3,2.4,9.8,2.9
		c0.9,1.1,2.3,0.8,3.6,1.1c0.4,0.1,0.7,0.4,1.1,0.5c1,0.3,2.4,0.3,3.4,0.5c1.2,0.3,2.2,0.9,3.3,1.2c0.7,0.2,1.5-0.1,2.2,0
		c0.5,0.1,0.9,0.5,1.3,0.7c1.5,0.6,3.2,0.4,4.9,0.7c2.8,0.4,5.5,1.6,8.6,1.6c1.2,0.7,2.6,0.6,4.2,0.9c1.2,0.2,2.4,0.5,3.6,0.7
		c0.7,0.1,1.6,0.4,2.2,0.4c0.6,0,1.3-0.5,1.8-0.5c4-0.4,8.2,0.5,12.3,0c1.5-0.2,2.8-0.8,4.2-0.9c2.6-0.2,5.3,0.5,7.6-0.7
		c-2.6-0.4-5.7-0.1-8.3-0.7C184.6,215.4,181.4,214.3,178,214.1z M137.7,205.6c0.4-0.5,1.4-0.3,2,0.1c0.3-0.6,1.2-0.1,1.4,0.1
		C140.4,207.1,138.8,205.7,137.7,205.6z"/>
</g>
</svg>
